<?xml version="1.0" encoding="iso-8859-1"?>
<!-- Generator: Adobe Illustrator 19.0.0, SVG Export Plug-In . SVG Version: 6.00 Build 0)  -->
<svg version="1.1" id="Capa_1" xmlns="http://www.w3.org/2000/svg" xmlns:xlink="http://www.w3.org/1999/xlink" x="0px" y="0px"
	 viewBox="0 0 511.975 511.975" style="enable-background:new 0 0 511.975 511.975;" xml:space="preserve">
<g>
	<path style="fill:#2196F3;" d="M323.825,110.785c103.04-0.928,179.008,89.984,171.68,185.44
		c-2.976,38.784-17.216,73.664-44.288,101.888c-33.056,34.432-67.232,67.936-101.216,101.664
		c-12.384,12.16-27.552,15.392-43.616,8.96c-16.064-6.432-25.248-19.04-27.296-36.256c-1.376-11.008,1.6-20.896,9.632-28.928
		c22.944-23.424,45.888-46.816,68.864-70.24c11.232-11.712,22.72-23.168,32.832-35.584c23.168-28.224,26.4-59.68,10.784-92.032
		c-16.512-33.952-44.512-50.496-82.624-49.344c-21.12,0.448-38.784,8.48-53.696,22.944c-14.464,14.016-28.928,28.448-43.84,42.016
		c-14.464,13.088-33.28,14.464-49.12,4.576c-16.32-10.048-24.128-29.568-18.848-47.904c1.152-4.128,3.2-8.48,5.952-11.936
		c21.12-25.248,43.392-49.344,70.912-67.712C258.417,119.041,290.321,110.113,323.825,110.785z"/>
	<path style="fill:#2196F3;" d="M186.769,400.897C86.001,401.601,9.137,310.465,16.465,215.233
		c2.976-37.408,16.064-71.392,41.536-98.688c32.128-34.432,66.112-67.264,99.392-100.544c3.68-3.68,7.808-6.656,12.16-9.408
		c16.512-10.112,33.504-8.48,48.672,4.128c13.088,11.008,18.816,31.456,11.936,47.04c-2.528,5.984-7.36,11.264-11.936,16.064
		c-28.704,29.376-57.6,58.752-86.08,88.128c-11.488,11.712-21.568,24.32-26.624,40.608c-16.768,53.504,24.096,116.16,87.2,112.96
		c20.896-1.152,38.784-8.032,53.92-22.496c14.464-14.016,28.704-28.224,43.84-42.016c14.464-13.088,32.128-14.912,47.744-5.952
		c16.064,8.96,24.8,26.624,21.344,44.992c-1.152,5.728-3.68,11.936-7.36,16.288c-21.12,25.024-43.616,49.12-70.912,67.712
		C252.881,393.313,220.721,400.673,186.769,400.897z"/>
</g>
<g>
</g>
<g>
</g>
<g>
</g>
<g>
</g>
<g>
</g>
<g>
</g>
<g>
</g>
<g>
</g>
<g>
</g>
<g>
</g>
<g>
</g>
<g>
</g>
<g>
</g>
<g>
</g>
<g>
</g>
</svg>
